<?xml version="1.0" encoding="UTF-8" standalone="no" ?>
<!DOCTYPE svg PUBLIC "-//W3C//DTD SVG 1.1//EN" "http://www.w3.org/Graphics/SVG/1.1/DTD/svg11.dtd">
<svg xmlns="http://www.w3.org/2000/svg" xmlns:xlink="http://www.w3.org/1999/xlink" version="1.1" width="1080" height="1080" viewBox="0 0 1080 1080" xml:space="preserve">
<desc>Created with Fabric.js 5.2.4</desc>
<defs>
</defs>
<g transform="matrix(1 0 0 1 540 540)" id="35b8844c-695e-4842-b6c7-ecd1d3d39350"  >
<rect style="stroke: none; stroke-width: 1; stroke-dasharray: none; stroke-linecap: butt; stroke-dashoffset: 0; stroke-linejoin: miter; stroke-miterlimit: 4; fill: rgb(255,255,255); fill-rule: nonzero; opacity: 1; visibility: hidden;" vector-effect="non-scaling-stroke"  x="-540" y="-540" rx="0" ry="0" width="1080" height="1080" />
</g>
<g transform="matrix(1 0 0 1 540 540)" id="032d7321-1713-4ee5-82d0-176e6d1bdb87"  >
</g>
<g transform="matrix(32.22 0 0 15.92 540 513.45)"  >
<path style="stroke: none; stroke-width: 1; stroke-dasharray: none; stroke-linecap: butt; stroke-dashoffset: 0; stroke-linejoin: miter; stroke-miterlimit: 4; fill: rgb(31,35,40); fill-rule: evenodd; opacity: 1;" vector-effect="non-scaling-stroke"  transform=" translate(-12, -10.77)" d="M 12.0006 10.9409 L 9.53062 8.46979 L 8.46973 9.53021 L 12.0006 13.0626 L 15.5315 9.53021 L 14.4706 8.46979 L 12.0006 10.9409 Z" stroke-linecap="round" />
</g>
<g transform="matrix(32.86 0 0 14.99 540 446.25)"  >
<path style="stroke: none; stroke-width: 0; stroke-dasharray: none; stroke-linecap: butt; stroke-dashoffset: 0; stroke-linejoin: miter; stroke-miterlimit: 4; fill: rgb(31,35,40); fill-rule: evenodd; opacity: 1;" vector-effect="non-scaling-stroke"  transform=" translate(-12, -14.77)" d="M 12.0006 14.9409 L 9.53062 12.4698 L 8.46973 13.5302 L 12.0006 17.0626 L 15.5315 13.5302 L 14.4706 12.4698 L 12.0006 14.9409 Z" stroke-linecap="round" />
</g>
<g transform="matrix(32.22 0 0 15.92 540 582.02)"  >
<path style="stroke: none; stroke-width: 1; stroke-dasharray: none; stroke-linecap: butt; stroke-dashoffset: 0; stroke-linejoin: miter; stroke-miterlimit: 4; fill: rgb(31,35,40); fill-rule: evenodd; opacity: 1;" vector-effect="non-scaling-stroke"  transform=" translate(-12, -10.77)" d="M 12.0006 10.9409 L 9.53062 8.46979 L 8.46973 9.53021 L 12.0006 13.0626 L 15.5315 9.53021 L 14.4706 8.46979 L 12.0006 10.9409 Z" stroke-linecap="round" />
</g>
</svg>